<svg width="52" height="50" viewBox="0 0 52 50" fill="none" xmlns="http://www.w3.org/2000/svg">
<g clip-path="url(#clip0_2066_420)">
<path d="M10.8197 11.1798C8.87966 8.8298 8.02966 4.5998 10.1397 2.1198C12.5597 -0.710203 16.6297 -0.620203 19.2397 1.8898C20.4197 3.0298 21.1397 4.5398 21.4397 6.1398C21.7797 7.9798 21.3097 9.7798 21.5097 11.6198C21.8697 14.9298 24.6897 17.5498 27.9497 17.9498C31.4697 18.3798 35.2297 16.1198 36.0697 12.5798C36.4197 11.1098 36.0697 9.1998 36.8197 7.8398C37.6297 6.3698 39.7397 5.6498 41.3897 6.2398C42.7897 6.7498 43.8097 8.1798 43.7897 9.6798C43.7597 11.6798 42.0997 13.1598 40.6997 14.3498C37.7697 16.8298 34.1097 18.4798 30.3197 19.0698C22.9597 20.2098 15.2097 17.2798 10.8197 11.1898" fill="#7B7F88"/>
<path d="M19.85 44.03C18.81 46.89 15.6 49.78 12.38 49.22C8.72001 48.58 6.73001 45.02 7.57001 41.5C7.95001 39.91 8.88001 38.52 10.11 37.45C11.52 36.23 13.31 35.71 14.79 34.61C17.46 32.61 18.29 28.85 16.98 25.84C15.56 22.59 11.7 20.5 8.23001 21.57C6.78001 22.01 5.32001 23.28 3.76001 23.33C2.08001 23.38 0.390007 21.93 0.0600065 20.2C-0.219993 18.74 0.500007 17.13 1.80001 16.39C3.53001 15.4 5.65001 16.07 7.39001 16.68C11.01 17.94 14.3 20.26 16.73 23.22C21.45 28.98 22.86 37.14 19.85 44.02" fill="#7B7F88"/>
<path d="M43.5404 20.3003C46.5604 19.8703 50.6204 21.3303 51.6404 24.4303C52.8004 27.9703 50.6004 31.4003 47.1104 32.3203C45.5304 32.7403 43.8604 32.5803 42.3404 32.0003C40.5904 31.3303 39.2904 29.9903 37.6304 29.2203C34.6104 27.8103 30.9104 28.8503 28.8704 31.4303C26.6704 34.2203 26.6604 38.6003 29.2404 41.1603C30.3204 42.2303 32.1204 42.9203 32.9004 44.2703C33.7304 45.7303 33.2504 47.9003 31.8904 49.0003C30.7304 49.9403 28.9704 50.0603 27.7104 49.2703C26.0204 48.2103 25.6104 46.0203 25.3204 44.2003C24.7204 40.4103 25.2104 36.4203 26.6804 32.8703C29.5304 25.9903 36.0504 20.8903 43.5404 20.2903" fill="#7B7F88"/>
</g>
<defs>
<clipPath id="clip0_2066_420">
<rect width="51.96" height="49.79" fill="white"/>
</clipPath>
</defs>
</svg>
