<svg width="61" height="113" viewBox="0 0 61 113" fill="none" xmlns="http://www.w3.org/2000/svg">
<path d="M48.8298 31.0705C42.5106 26.7683 32.9362 26 25.6979 26H0V87H25.8511C30.0638 87 37.4553 87 43.6979 84.6184C55.9915 79.8168 60.2809 69.8293 60.2809 56.3079C60.2809 47.2809 57.8681 37.2166 48.8298 31.0705Z" fill="#E7E5E0"/>
<path d="M41.7447 40.7124C37.8383 38.0235 31.8638 37.5625 27.383 37.5625H11.4511V66.9485H22.1745V44.7457L26.2723 44.8226C29.4511 44.8226 38.0298 44.8226 38.0298 56.3081C38.0298 65.1047 33.5872 68.1009 26.6553 68.1393H22.9021H22.1362H11.4128V75.4378H27.4596C30.0638 75.4378 34.6596 75.4378 38.5277 73.9781C46.1489 70.9819 48.8298 64.7974 48.8298 56.4233C48.8681 50.7766 47.3362 44.5537 41.7447 40.7124Z" fill="#191A1D" fill-opacity="0.8"/>
</svg>
